<?xml version="1.0" encoding="UTF-8"?>
<svg
	width="208.02mm"
	height="68.257mm"
	version="1.1"
	viewBox="0 0 208.02 68.257"
	xmlns="http://www.w3.org/2000/svg"
	xmlns:cc="http://creativecommons.org/ns#"
	xmlns:dc="http://purl.org/dc/elements/1.1/"
	xmlns:rdf="http://www.w3.org/1999/02/22-rdf-syntax-ns#">
	<metadata>
		<rdf:RDF>
			<cc:Work rdf:about="">
				<dc:format>image/svg+xml</dc:format>
				<dc:type rdf:resource="http://purl.org/dc/dcmitype/StillImage"/>
				<dc:title/>
			</cc:Work>
		</rdf:RDF>
	</metadata>
	<g transform="translate(-4.885 -111.64)" fill-rule="evenodd">
		<rect x="5.7972" y="111.64" width="9.1633" height="10.472" fill="#fbf000" stop-color="#000000" style="font-variation-settings:normal"/>
		<rect x="19.723" y="111.64" width="9.1633" height="10.472" fill="#4d4d4d" stop-color="#000000" style="font-variation-settings:normal"/>
		<rect x="33.649" y="111.64" width="9.1633" height="10.472" fill="#4d4d4d" stop-color="#000000" style="font-variation-settings:normal"/>
		<rect x="47.575" y="111.64" width="9.1633" height="10.472" fill="#4d4d4d" stop-color="#000000" style="font-variation-settings:normal"/>
		<rect x="61.501" y="111.64" width="9.1633" height="10.472" fill="#4d4d4d" stop-color="#000000" style="font-variation-settings:normal"/>
		<rect x="75.426" y="111.64" width="9.1633" height="10.472" fill="#4d4d4d" stop-color="#000000" style="font-variation-settings:normal"/>
		<rect x="89.352" y="111.64" width="9.1633" height="10.472" fill="#4d4d4d" stop-color="#000000" style="font-variation-settings:normal"/>
		<rect x="103.28" y="111.64" width="9.1633" height="10.472" fill="#4d4d4d" stop-color="#000000" style="font-variation-settings:normal"/>
		<rect x="117.2" y="111.64" width="9.1633" height="10.472" fill="#4d4d4d" stop-color="#000000" style="font-variation-settings:normal"/>
		<rect x="131.13" y="111.64" width="9.1633" height="10.472" fill="#4d4d4d" stop-color="#000000" style="font-variation-settings:normal"/>
		<rect x="145.06" y="111.64" width="9.1633" height="10.472" fill="#4d4d4d" stop-color="#000000" style="font-variation-settings:normal"/>
		<rect x="158.98" y="111.64" width="9.1633" height="10.472" fill="#4d4d4d" stop-color="#000000" style="font-variation-settings:normal"/>
		<rect x="172.91" y="111.64" width="9.1633" height="10.472" fill="#4d4d4d" stop-color="#000000" style="font-variation-settings:normal"/>
		<rect x="188.95" y="111.64" width="23.75" height="10.472" fill="#4d4d4d" stop-color="#000000" style="font-variation-settings:normal"/>
		<rect x="26.418" y="126.04" width="9.1633" height="10.472" fill="#4d4d4d" stop-color="#000000" style="font-variation-settings:normal"/>
		<rect x="186.27" y="140.11" width="26.433" height="10.472" fill="#4d4d4d" stop-color="#000000" style="font-variation-settings:normal"/>
		<rect x="40.344" y="126.04" width="9.1633" height="10.472" fill="#fbf000" stop-color="#000000" style="font-variation-settings:normal"/>
		<rect x="54.469" y="125.86" width="9.1633" height="10.472" fill="#4d4d4d" stop-color="#000000" style="font-variation-settings:normal"/>
		<rect x="68.395" y="125.86" width="9.1633" height="10.472" fill="#4d4d4d" stop-color="#000000" style="font-variation-settings:normal"/>
		<rect x="82.85" y="125.86" width="9.1633" height="10.472" fill="#4d4d4d" stop-color="#000000" style="font-variation-settings:normal"/>
		<rect x="96.775" y="125.86" width="9.1633" height="10.472" fill="#4d4d4d" stop-color="#000000" style="font-variation-settings:normal"/>
		<rect x="110.9" y="125.67" width="9.1633" height="10.472" fill="#fbf000" stop-color="#000000" style="font-variation-settings:normal"/>
		<rect x="124.83" y="125.67" width="9.1633" height="10.472" fill="#fbf000" stop-color="#000000" style="font-variation-settings:normal"/>
		<rect x="139.28" y="125.67" width="9.1633" height="10.472" fill="#fbf000" stop-color="#000000" style="font-variation-settings:normal"/>
		<rect x="153.21" y="125.67" width="9.1633" height="10.472" fill="#4d4d4d" stop-color="#000000" style="font-variation-settings:normal"/>
		<rect x="167.33" y="125.48" width="9.1633" height="10.472" fill="#4d4d4d" stop-color="#000000" style="font-variation-settings:normal"/>
		<rect x="181.26" y="125.48" width="9.1633" height="10.472" fill="#4d4d4d" stop-color="#000000" style="font-variation-settings:normal"/>
		<rect x="196.77" y="125.48" width="15.522" height="10.472" fill="#4d4d4d" stop-color="#000000" style="font-variation-settings:normal"/>
		<rect x="6.1337" y="126.04" width="15.522" height="10.472" fill="#4d4d4d" stop-color="#000000" style="font-variation-settings:normal"/>
		<rect x="6.5416" y="140.67" width="20.122" height="10.472" fill="#4d4d4d" stop-color="#000000" style="font-variation-settings:normal"/>
		<rect x="31.426" y="140.67" width="9.1633" height="10.472" fill="#fbf000" stop-color="#000000" style="font-variation-settings:normal"/>
		<rect x="45.551" y="140.48" width="9.1633" height="10.472" fill="#4d4d4d" stop-color="#000000" style="font-variation-settings:normal"/>
		<rect x="59.477" y="140.48" width="9.1633" height="10.472" fill="#4d4d4d" stop-color="#000000" style="font-variation-settings:normal"/>
		<rect x="73.932" y="140.48" width="9.1633" height="10.472" fill="#4d4d4d" stop-color="#000000" style="font-variation-settings:normal"/>
		<rect x="87.858" y="140.48" width="9.1633" height="10.472" fill="#4d4d4d" stop-color="#000000" style="font-variation-settings:normal"/>
		<rect x="101.98" y="140.29" width="9.1633" height="10.472" fill="#4d4d4d" stop-color="#000000" style="font-variation-settings:normal"/>
		<rect x="115.91" y="140.29" width="9.1633" height="10.472" fill="#4d4d4d" stop-color="#000000" style="font-variation-settings:normal"/>
		<rect x="130.36" y="140.29" width="9.1633" height="10.472" fill="#4d4d4d" stop-color="#000000" style="font-variation-settings:normal"/>
		<rect x="144.29" y="140.29" width="9.1633" height="10.472" fill="#4d4d4d" stop-color="#000000" style="font-variation-settings:normal"/>
		<rect x="158.41" y="140.11" width="9.1633" height="10.472" fill="#4d4d4d" stop-color="#000000" style="font-variation-settings:normal"/>
		<rect x="172.34" y="140.11" width="9.1633" height="10.472" fill="#4d4d4d" stop-color="#000000" style="font-variation-settings:normal"/>
		<rect x="37.277" y="154.28" width="9.1633" height="10.472" fill="#4d4d4d" stop-color="#000000" style="font-variation-settings:normal"/>
		<rect x="51.202" y="154.28" width="9.1633" height="10.472" fill="#4d4d4d" stop-color="#000000" style="font-variation-settings:normal"/>
		<rect x="65.328" y="154.1" width="9.1633" height="10.472" fill="#4d4d4d" stop-color="#000000" style="font-variation-settings:normal"/>
		<rect x="79.253" y="154.1" width="9.1633" height="10.472" fill="#4d4d4d" stop-color="#000000" style="font-variation-settings:normal"/>
		<rect x="93.708" y="154.1" width="9.1633" height="10.472" fill="#4d4d4d" stop-color="#000000" style="font-variation-settings:normal"/>
		<rect x="107.63" y="154.1" width="9.1633" height="10.472" fill="#4d4d4d" stop-color="#000000" style="font-variation-settings:normal"/>
		<rect x="121.76" y="153.91" width="9.1633" height="10.472" fill="#4d4d4d" stop-color="#000000" style="font-variation-settings:normal"/>
		<rect x="135.69" y="153.91" width="9.1633" height="10.472" fill="#fbf000" stop-color="#000000" style="font-variation-settings:normal"/>
		<rect x="150.14" y="153.91" width="9.1633" height="10.472" fill="#fbf000" stop-color="#000000" style="font-variation-settings:normal"/>
		<rect x="164.07" y="153.91" width="9.1633" height="10.472" fill="#4d4d4d" stop-color="#000000" style="font-variation-settings:normal"/>
		<rect x="179.25" y="153.72" width="33.474" height="10.472" fill="#4d4d4d" stop-color="#000000" style="font-variation-settings:normal"/>
		<rect x="57.879" y="169.43" width="84.901" height="10.472" fill="#4d4d4d" stop-color="#000000" style="font-variation-settings:normal"/>
		<rect x="147.54" y="169.43" width="12.903" height="10.472" fill="#4d4d4d" stop-color="#000000" style="font-variation-settings:normal"/>
		<rect x="165.21" y="169.43" width="13.277" height="10.472" fill="#4d4d4d" stop-color="#000000" style="font-variation-settings:normal"/>
		<rect x="183.25" y="169.43" width="12.27" height="10.472" fill="#4d4d4d" stop-color="#000000" style="font-variation-settings:normal"/>
		<rect x="199.82" y="169.43" width="13.09" height="10.472" fill="#4d4d4d" stop-color="#000000" style="font-variation-settings:normal"/>
		<rect x="4.885" y="169.43" width="13.277" height="10.472" fill="#4d4d4d" stop-color="#000000" style="font-variation-settings:normal"/>
		<rect x="22.925" y="169.43" width="12.27" height="10.472" fill="#4d4d4d" stop-color="#000000" style="font-variation-settings:normal"/>
		<rect x="39.496" y="169.43" width="13.09" height="10.472" fill="#4d4d4d" stop-color="#000000" style="font-variation-settings:normal"/>
		<rect x="5.9616" y="154.28" width="26.023" height="10.472" fill="#4d4d4d" stop-color="#000000" style="font-variation-settings:normal"/>
		<rect x="77.018" y="150.21" width="2.9921" height=".74803" stop-color="#000000" style="font-variation-settings:normal"/>
		<rect x="118.99" y="150.02" width="2.9921" height=".74803" stop-color="#000000" style="font-variation-settings:normal"/>
	</g>
</svg>
